<?xml version="1.0" encoding="utf-8"?>
<!-- Generator: Adobe Illustrator 17.0.0, SVG Export Plug-In . SVG Version: 6.00 Build 0)  -->
<!DOCTYPE svg PUBLIC "-//W3C//DTD SVG 1.1//EN" "http://www.w3.org/Graphics/SVG/1.1/DTD/svg11.dtd">
<svg version="1.1" id="Layer_1" xmlns="http://www.w3.org/2000/svg" xmlns:xlink="http://www.w3.org/1999/xlink" x="0px" y="0px"
	 width="647px" height="370px" viewBox="0 0 647 370" enable-background="new 0 0 647 370" xml:space="preserve">
<g>
	<circle fill="#DDDDDD" cx="323.499" cy="14.899" r="2.343"/>
	<path fill="#DDDDDD" d="M587.345,345.164c0.056-0.392,0.086-0.789,0.086-1.187V16.462C587.431,7.385,580.046,0,570.969,0H76.032
		c-9.078,0-16.464,7.385-16.464,16.462v327.515c0,0.399,0.029,0.795,0.086,1.187H0v12.422C0,364.547,9.492,370,21.61,370h603.779
		c12.118,0,21.611-5.453,21.611-12.414v-12.422H587.345z M64.547,16.462c0-6.332,5.152-11.483,11.485-11.483h494.936
		c6.332,0,11.483,5.151,11.483,11.483v327.515c0,0.777-0.259,1.51-0.747,2.119l-2.447,3.052H369.334v2.584
		c0,2.055-3.814,3.791-8.328,3.791h-75.014c-4.512,0-8.325-1.736-8.325-3.791v-2.584H67.748l-2.454-3.054
		c-0.489-0.608-0.747-1.34-0.747-2.117V16.462z M642.021,357.586c0,3.51-7.113,7.435-16.632,7.435H21.61
		c-9.518,0-16.631-3.925-16.631-7.435v-7.443h58.374h5.195h208.123v1.588c0,2.684,4.094,4.787,9.32,4.787h75.014
		c5.228,0,9.324-2.103,9.324-4.787v-1.588h208.129h5.188h58.374V357.586z"/>
</g>
<rect x="80" y="30" fill="#DDDDDD" width="487" height="300"/>
</svg>
